<svg xmlns="http://www.w3.org/2000/svg" viewBox="0 0 273.94 92.81"><defs><style>.cls-1{fill:#f79f51;}</style></defs><title>clubhouse</title><g id="Layer_2" data-name="Layer 2"><g id="Layer_4" data-name="Layer 4"><path class="cls-1" d="M36.77,76c-1.79-3-9-7.2-10.77-7.71a55.52,55.52,0,0,1-3.91,4.89,3,3,0,0,1-2.15.82,3.51,3.51,0,0,1-2.45-1.13,3.33,3.33,0,0,1-.06-4.64c.22-.21.91-.72,2.12-1.6.91-.67,2.35-1.72,2.88-2.17-.41-1.59-4.23-9.08-6.64-11.59a1,1,0,0,0-.52-.09,15.15,15.15,0,0,0-8.51,4C-.36,63.6-.5,76.61,6.46,84c3.2,3.42,8.25,7.44,14.15,7.32,4.26-.1,8.32-2.38,12.08-6.79C36.25,81.15,37.22,76.74,36.77,76Z"/><path d="M38,75.29c-2.1-3.57-10.69-8.56-12.32-8.44a.8.8,0,0,0-.7.51,49.65,49.65,0,0,1-3.81,4.82,1.63,1.63,0,0,1-1.15.43,2.12,2.12,0,0,1-1.47-.69,1.94,1.94,0,0,1-.12-2.7c.16-.16,1.13-.86,2-1.48a32,32,0,0,0,3.29-2.55c1.05-1.25-5.16-11.5-6.87-13.29a2,2,0,0,0-1.45-.49h-.08c-2.09,0-6.46,1.5-9.46,4.38C-1.8,63.14-2,77.08,5.48,85c3.33,3.56,8.6,7.77,14.87,7.77h.28c4.67-.11,9.08-2.56,13.05-7.23C37.23,82.13,39,77,38,75.29ZM20.63,91.39c-5.89.11-10.95-3.91-14.15-7.32-7-7.43-6.81-20.45.3-27.3a15.15,15.15,0,0,1,8.51-4,1,1,0,0,1,.52.09c2.41,2.51,6.23,10,6.64,11.59-.53.45-2,1.5-2.87,2.17-1.21.88-1.9,1.39-2.12,1.6a3.33,3.33,0,0,0,.06,4.64A3.51,3.51,0,0,0,20,74a3,3,0,0,0,2.15-.82A55.52,55.52,0,0,0,26,68.28c1.78.51,9,4.66,10.77,7.71.45.77-.53,5.18-4.1,8.63C28.92,89,24.86,91.29,20.63,91.39Z"/><path class="cls-1" d="M52.35,49.11c-1.63-.17-5.75,4-8.15,7l-.66.83-.49-1c-2.45-4.7-9.73-17-13.86-17.45-2-.21-6.87,4.78-9.58,8.14C20.86,55.15,40,72.57,42.82,75.12,48.16,72.37,60.73,64.9,61.17,60,61.49,56.45,55.36,49.43,52.35,49.11Z"/><path d="M52.5,47.73c-2.57-.28-6.9,4.55-8.72,6.73-2.09-3.87-9.39-16.71-14.45-17.26-3.54-.39-10.24,7.93-11,8.88l-.18.22v.28c1,9.51,23.12,29.09,24.06,29.92l.35.31L43,76.6c.77-.39,18.91-9.62,19.53-16.46C62.92,56,56.53,48.17,52.5,47.73ZM42.81,75.16c-2.84-2.55-22-20-23.21-28.44,2.71-3.36,7.56-8.35,9.58-8.14C33.31,39,40.59,51.33,43,56l.49,1,.66-.83c2.4-3,6.53-7.2,8.15-7,3,.33,9.13,7.34,8.81,10.91C60.72,64.93,48.15,72.4,42.81,75.16Z"/><path class="cls-1" d="M83.71,33.69C82,28.88,76.92,16.31,73.15,15.26c-1.65-.46-5.27.78-7.91,2.7-1.71,1.24-2.71,2.55-2.75,3.6-.1,2.51,6.27,12.91,10.57,19.29.85,1.45.67,3-.4,3.64a1.81,1.81,0,0,1-1.51.24c-.74-.23-1.34-.94-2-2.31-.35-.78-.79-1.84-1.29-3.07-2.13-5.25-5.7-14-9.32-15.37a2.11,2.11,0,0,0-.74-.12c-2.85,0-7.85,4.47-9.34,7.45-.81,1.62,4.33,10,9.77,17.19,5.78,9,13.52,11.44,21.26,6.78C86.63,51,88.13,43.29,83.71,33.69Z"/><path d="M85,33.17c-.63-1.82-6.32-17.81-11.47-19.25-2.31-.64-6.44,1-9.1,2.92-2.08,1.52-3.26,3.17-3.32,4.66a9.88,9.88,0,0,0,1.08,3.66,7.91,7.91,0,0,0-3.13-2.49c-3.73-1.38-10.06,4.53-11.81,8-.48,1-.54,3.1,4.4,10.76,2.63,4.08,5.48,7.84,5.48,7.84C62,56.82,67.28,59,71.73,59a16.88,16.88,0,0,0,8.51-2.51C88,51.78,89.72,43.48,85,33.17ZM58.26,48.5c-5.44-7.21-10.63-15.57-9.77-17.21,1.5-3,6.49-7.45,9.34-7.45a2.11,2.11,0,0,1,.74.12c3.62,1.34,7.19,10.12,9.32,15.37.5,1.23.93,2.29,1.29,3.07.62,1.37,1.23,2.08,2,2.31a1.81,1.81,0,0,0,1.51-.24c1.07-.64,1.25-2.19.4-3.64C68.79,34.45,62.42,24,62.52,21.54c0-1,1-2.35,2.75-3.6,2.64-1.92,6.26-3.16,7.91-2.7,3.77,1,8.88,13.61,10.56,18.43,4.39,9.62,2.89,17.33-4.22,21.62C71.77,59.94,64,57.48,58.26,48.5Zm13.63-6.91c.37.63.48,1.46.06,1.71-.24.15-.35.12-.38.1s-.53-.28-1.11-1.56c-.35-.77-.77-1.81-1.27-3s-1.06-2.6-1.66-4C69.58,38.15,71.44,40.93,71.89,41.59Z"/><path class="cls-1" d="M115.73,27.52a8.68,8.68,0,0,0-5.5-6.23L109.4,21l.47-.74a8.65,8.65,0,0,0,.78-7.22,11.23,11.23,0,0,0-5.26-6.76,9,9,0,0,0-4.34-1.14,8.35,8.35,0,0,0-2.37.34h-.11c-9,1.15-16.89,3.25-16.89,4.48,0,8.52,6.78,28.64,10.44,36.3,1.31,2.73,11.45-.58,18.23-3.8h.1C115.43,41,117.37,33.24,115.73,27.52Zm-18.3-6.45-1.29-4.49,1.33-.39a2.08,2.08,0,0,1,1.6.17,2.42,2.42,0,0,1,1.15,1.48,2.23,2.23,0,0,1-1.41,2.82h0Zm5,11.21-1.67.49-1.32-4.59,1.66-.49a2.14,2.14,0,0,1,1.64.19,2.43,2.43,0,0,1,1.16,1.45,2.35,2.35,0,0,1-1.45,3Z"/><path d="M117.06,27.14a10.12,10.12,0,0,0-5.6-6.81A10.19,10.19,0,0,0,112,12.7a12.62,12.62,0,0,0-5.92-7.6,10.1,10.1,0,0,0-7.71-.93c-5.47.7-18.05,2.67-18,5.85,0,9.22,7.35,30.15,10.58,36.9.62,1.3,2.1,1.8,4,1.8,5.28,0,13.79-3.86,16-4.92C116.63,42,118.91,33.58,117.06,27.14Zm-6.7,15.38c-6.78,3.22-16.92,6.53-18.23,3.8C88.47,38.66,81.69,18.54,81.69,10c0-1.23,7.89-3.32,16.89-4.48h.11a8.35,8.35,0,0,1,2.37-.34,9,9,0,0,1,4.34,1.14,11.23,11.23,0,0,1,5.26,6.76,8.65,8.65,0,0,1-.78,7.22l-.47.74.83.29a8.68,8.68,0,0,1,5.49,6.19c1.64,5.71-.3,13.49-5.27,15Z"/><path d="M102.77,27.89a2.14,2.14,0,0,0-1.64-.19l-1.66.49,1.32,4.59,1.67-.49a2.35,2.35,0,0,0,1.47-3A2.43,2.43,0,0,0,102.77,27.89Zm-1,3.17-.55-1.93.34-.1h0a.76.76,0,0,1,.58.08,1.06,1.06,0,0,1,0,1.86Z"/><path d="M100.21,17.86a2.42,2.42,0,0,0-1.15-1.48,2.08,2.08,0,0,0-1.6-.17l-1.33.39,1.29,4.49,1.33-.39a2.23,2.23,0,0,0,1.48-2.79Zm-2.36-.33a.7.7,0,0,1,.54.06,1.06,1.06,0,0,1,.48.65.87.87,0,0,1-.51,1.11l-.52-1.82Z"/><path class="cls-1" d="M149,3c-.37-.78-1.49-1.33-3.15-1.56C142.45,1,138,2,136.69,3.57c-.95,1.09-.5,5.54-.23,8.19s.31,3.31-.05,3.73a2.74,2.74,0,0,1-1.88,1,1.78,1.78,0,0,1-1.35-.52c-.48-.47-.46-1.49-.33-4.37.11-2.6.31-7-.63-7.92-1.26-1.31-5.09-2-8.37-1.6-2,.27-3.46.93-3.94,1.82-4.21,7.67.33,33.43,1,37.18,4.19.81,10.86,1.42,12.3-.24,1.09-1.26.46-6.79.15-9.45-.26-2.26-.29-2.69-.1-3a1.27,1.27,0,0,1,.81-.67,1.74,1.74,0,0,1,1.38.45,3.92,3.92,0,0,0,.52.32c.71.34.75,1.35.75,4.5,0,2.69,0,6.76,1,7.77,1.51,1.56,8.13.59,12.27-.44C150.32,36.43,152.47,10.46,149,3Z"/><path d="M150.21,2.46c-.58-1.23-2-2-4.22-2.34-3.44-.47-8.54.46-10.35,2.55-1.24,1.43-1,5-.57,9.24a24.25,24.25,0,0,1,.19,2.78,1.33,1.33,0,0,1-.81.43.36.36,0,0,1-.26-.07,22.38,22.38,0,0,1,0-3.37c.19-4.27.23-7.65-1-9C131.43.91,127,.27,123.64.73c-2.5.33-4.26,1.23-5,2.53-4.77,8.68.72,37.36,1,38.57l.09.45.45.09a46.42,46.42,0,0,0,8.31.93c2.46,0,4.76-.36,5.77-1.53,1.38-1.59,1-5.88.48-10.52-.09-.76-.18-1.6-.21-2l.15.1.54.34a22.86,22.86,0,0,1,.12,3.33c0,4.15.09,7.42,1.36,8.74h0c2.64,2.73,12.93.12,14.09-.18l.47-.12v-.48C151.43,39.7,154.15,10.77,150.21,2.46ZM137.69,40.75c-1-1-1-5.08-1-7.77,0-3.15,0-4.16-.75-4.5a3.92,3.92,0,0,1-.52-.32,1.74,1.74,0,0,0-1.38-.45,1.27,1.27,0,0,0-.81.67c-.19.35-.16.78.1,3,.31,2.66.94,8.19-.15,9.45-1.43,1.65-8.11,1-12.3.24-.69-3.76-5.23-29.51-1-37.18.49-.89,1.93-1.55,3.94-1.82,3.27-.44,7.11.3,8.37,1.6.94,1,.75,5.32.63,7.92-.13,2.88-.15,3.9.33,4.37a1.78,1.78,0,0,0,1.35.52,2.74,2.74,0,0,0,1.88-1c.37-.43.31-1.18.05-3.73s-.71-7.1.23-8.19C138,2,142.41,1,145.78,1.48c1.66.23,2.78.78,3.15,1.56,3.51,7.4,1.36,33.38,1,37.26-4.1,1-10.72,2-12.23.45Z"/><path class="cls-1" d="M174.11,6.29C167.77,5.2,163.39,5.76,160.32,8c-3.28,2.45-5.29,7.1-6.13,14.2C152.91,33.1,158.74,42.47,167.75,44h0a15.8,15.8,0,0,0,11.88-2.82,20.18,20.18,0,0,0,8-13.13C189.38,17.64,183.32,7.87,174.11,6.29ZM174,25.72A3.57,3.57,0,0,1,172.57,28a3,3,0,0,1-1.73.56,2.85,2.85,0,0,1-.49,0,3.3,3.3,0,0,1-2.5-3.9,3.57,3.57,0,0,1,1.43-2.32,2.94,2.94,0,0,1,2.22-.52,3.3,3.3,0,0,1,2.5,3.85Z"/><path d="M174.34,4.92c-6.74-1.16-11.46-.52-14.85,2-3.61,2.69-5.79,7.65-6.68,15.15-1.37,11.6,5,21.62,14.7,23.31h0a16.57,16.57,0,0,0,2.82.24,17.43,17.43,0,0,0,10.09-3.29,21.57,21.57,0,0,0,8.55-14C190.87,17.12,184.3,6.63,174.34,4.92Zm13.29,23.16a20.18,20.18,0,0,1-8,13.13A15.8,15.8,0,0,1,167.76,44h0c-9-1.56-14.84-10.92-13.56-21.78C155,15.15,157,10.5,160.33,8c3.06-2.29,7.45-2.85,13.79-1.76C183.32,7.87,189.38,17.64,187.63,28.08Z"/><path d="M171.5,21.81a2.94,2.94,0,0,0-2.22.52,3.57,3.57,0,0,0-1.43,2.32,3.3,3.3,0,0,0,2.5,3.9,2.85,2.85,0,0,0,.49,0,3,3,0,0,0,1.73-.56A3.57,3.57,0,0,0,174,25.67,3.3,3.3,0,0,0,171.5,21.81Zm.28,5.09a1.58,1.58,0,0,1-1.18.29h0a1.92,1.92,0,0,1-1.37-2.3,2.18,2.18,0,0,1,.86-1.42,1.62,1.62,0,0,1,.93-.31h.25a1.92,1.92,0,0,1,1.37,2.3A2.18,2.18,0,0,1,171.78,26.9Z"/><path class="cls-1" d="M219,41.51c2.07-4.59,7.1-17.36,5.6-21.3-.24-.63-3.19-2-7.28-2.71-3.17-.55-4.6-.26-4.8,0-1.88,2.24-3.17,8.4-4.2,13.35-.5,2.41-1,4.68-1.48,6.35a1.94,1.94,0,0,1-1,1.18,3.27,3.27,0,0,1-2.43.13,1.9,1.9,0,0,1-1.2-1,2.25,2.25,0,0,1,0-1.77c.5-1.29,1.28-3,2.11-4.79,2.23-4.87,5.6-12.23,4.71-14.68s-8-4.56-11.49-4.56a5.54,5.54,0,0,0-1.17.1c-1.72.38-4.7,10.83-6.47,20.3-1.68,11.39,1.31,17.39,10,20C207.72,54.49,213.63,53.56,219,41.51Z"/><path d="M225.9,19.71c-.7-1.84-5.85-3.16-8.47-3.6-3.24-.54-5.24-.39-6,.47a8.14,8.14,0,0,0-.94,1.44,5.18,5.18,0,0,0-.18-2.25c-1.43-4-11.25-6-14.27-5.34-3.41.76-6.63,16.57-7.54,21.42-1.78,12.08,1.6,18.74,11,21.58a22.34,22.34,0,0,0,6.45,1.12c5.45,0,10.15-3.07,14.33-12.48C220.63,41.38,227.92,25,225.9,19.71Zm-26,32.4c-8.68-2.64-11.66-8.64-10-20,1.77-9.46,4.75-19.91,6.47-20.3a5.54,5.54,0,0,1,1.17-.1c3.51,0,10.56,2,11.49,4.56s-2.48,9.81-4.71,14.68c-.82,1.8-1.6,3.5-2.11,4.79a2.25,2.25,0,0,0,0,1.77,1.9,1.9,0,0,0,1.2,1,3.27,3.27,0,0,0,2.43-.13,1.94,1.94,0,0,0,1-1.18c.5-1.67,1-4,1.48-6.35,1-5,2.33-11.12,4.2-13.35.2-.23,1.63-.52,4.8,0,4.08.71,7,2.08,7.28,2.71,1.5,4-3.53,16.71-5.6,21.3-5.37,12.05-11.28,13-19.11,10.6ZM207,30.54c-.5,2.38-1,4.62-1.45,6.24a.56.56,0,0,1-.29.36,2,2,0,0,1-1.37,0,.53.53,0,0,1-.35-.28.87.87,0,0,1,0-.66c.49-1.25,1.26-2.93,2.08-4.72s1.59-3.51,2.27-5.11c-.32,1.4-.61,2.81-.9,4.17Z"/><path class="cls-1" d="M245.72,28.56c-.3-1.36-2.27-2-4-2.48-.5-.15-1-.3-1.39-.45a9.78,9.78,0,0,0-7.71-.11c-2.54,1.16-4.52,3.66-5.9,7.42a22.18,22.18,0,0,0-1.2,8.2,12.86,12.86,0,0,1-.45,4.54,3.57,3.57,0,0,1-1.79,2.12,3,3,0,0,1-2.38,0,1.25,1.25,0,0,1-.45-.31,4,4,0,0,0-1.4,1.57c-1.36,2.33-2.22,6.33-1.75,8.08.4,1.47,2.16,1.9,4,2.35a18.88,18.88,0,0,1,2.11.6,10.44,10.44,0,0,0,8.09-.24,11.7,11.7,0,0,0,6-6.78,18.62,18.62,0,0,0,1-9.24v-.15a7.81,7.81,0,0,1,.12-3.84,3.32,3.32,0,0,1,1.64-2,2.5,2.5,0,0,1,2,0h.06C244,34.92,246.09,30.23,245.72,28.56Z"/><path d="M247.07,28.29c-.48-2.14-3-2.9-5-3.51-.47-.14-.92-.28-1.31-.43a11.12,11.12,0,0,0-8.77-.08c-2.89,1.32-5.11,4.08-6.62,8.21a23.39,23.39,0,0,0-1.28,8.69,12,12,0,0,1-.37,4,2.23,2.23,0,0,1-1.07,1.34,1.66,1.66,0,0,1-1.24,0l-.07-.08a1.06,1.06,0,0,0-1.06-.41,4.44,4.44,0,0,0-2.48,2.3c-1.56,2.68-2.46,7-1.89,9.14s3,2.83,5,3.33a17.22,17.22,0,0,1,2,.55,12.17,12.17,0,0,0,4.29.79,11.65,11.65,0,0,0,4.87-1.07,13.07,13.07,0,0,0,6.71-7.56A20.08,20.08,0,0,0,240,43.65v-.17a6.76,6.76,0,0,1,0-3.2,2,2,0,0,1,.92-1.19,1.1,1.1,0,0,1,.88,0,2.07,2.07,0,0,1,.4.24l.63.46.39-.67C243.63,38.37,247.72,31.16,247.07,28.29Zm-4.82,9.61a2.5,2.5,0,0,0-2,0,3.32,3.32,0,0,0-1.64,2,7.81,7.81,0,0,0-.12,3.84v.15a18.62,18.62,0,0,1-1,9.24,11.7,11.7,0,0,1-6,6.78,10.44,10.44,0,0,1-8.09.24,18.88,18.88,0,0,0-2.11-.6c-1.87-.45-3.63-.88-4-2.35-.48-1.75.39-5.75,1.75-8.08a4,4,0,0,1,1.4-1.57,1.25,1.25,0,0,0,.45.31,3,3,0,0,0,2.38,0,3.57,3.57,0,0,0,1.79-2.12,12.86,12.86,0,0,0,.45-4.54,22.18,22.18,0,0,1,1.2-8.2c1.38-3.76,3.36-6.26,5.9-7.42a9.78,9.78,0,0,1,7.71.11c.41.16.89.3,1.39.45,1.73.53,3.69,1.13,4,2.48.37,1.68-1.76,6.36-3.4,9.33Z"/><path class="cls-1" d="M264.43,51.59c1.14.92,2.85,2.29,3.35,2.25,2.12-1.33,4-7.85,4.67-10.76-7.29-5.4-15.73-10.34-18.73-10.34a1.23,1.23,0,0,0-.9.28c-3.6,3.62-12.67,17.72-12.75,29.57,0,1.82,9.7,7.3,18.88,11.45,1.84-2.21,5.47-7.29,4.57-9.71-.4-1.08-2.65-1.66-4.64-2.16-2.43-.62-4.94-1.26-5.59-3-.31-.84.78-3.1,1.49-3.42,1.75-.78,4.09.94,6.36,2.6,1.08.79,3.07,2.27,3.51,2a4.4,4.4,0,0,0,1.25-3.14c-.15-.58-2.33-1.1-3.77-1.45-2.64-.63-5.37-1.29-6.07-3.15a5.42,5.42,0,0,1,.52-3,2.26,2.26,0,0,1,1.22-1.28C259.63,47.69,262.07,49.68,264.43,51.59Z"/><path d="M273.63,42.23s-4.54-3.38-9.36-6.32c-9.1-5.54-11.46-4.87-12.44-3.88-3.84,3.86-13.07,18.12-13.15,30.54,0,3.62,15.44,10.82,20.18,12.93l.47.21.3-.42c.68-.78,6.58-7.69,5.15-11.5-.66-1.76-3.17-2.4-5.59-3-2-.5-4.15-1.06-4.61-2.1a5.66,5.66,0,0,1,.73-1.73c1-.45,3.3,1.22,5,2.45,2.14,1.57,3.83,2.81,5,2.08a5.52,5.52,0,0,0,1.88-4.68c-.36-1.38-2.41-1.87-4.79-2.44-2.07-.5-4.65-1.12-5.07-2.22-.07-.5.41-2.38.87-2.54,1.09-.37,3.53,1.6,5.3,3,2.2,1.78,3.78,3.07,4.91,2.37,3.19-2,5.21-11.07,5.44-12.1l.09-.43Zm-17,7.37a5.42,5.42,0,0,0-.52,3c.7,1.86,3.43,2.51,6.07,3.15,1.44.35,3.62.87,3.77,1.45a4.4,4.4,0,0,1-1.32,3.09c-.44.26-2.43-1.21-3.51-2-2.27-1.66-4.61-3.38-6.36-2.6-.71.32-1.8,2.58-1.49,3.42.66,1.76,3.17,2.4,5.59,3,2,.51,4.23,1.08,4.64,2.16.91,2.42-2.72,7.5-4.57,9.71-9.18-4.14-18.89-9.63-18.88-11.45.08-11.85,9.15-26,12.75-29.57a1.23,1.23,0,0,1,.9-.28c3,0,11.44,4.94,18.73,10.34-.67,2.92-2.55,9.43-4.67,10.76-.5,0-2.21-1.33-3.35-2.25-2.36-1.91-4.8-3.9-6.63-3.27A2.26,2.26,0,0,0,256.63,49.6Z"/></g></g></svg>