<svg xmlns="http://www.w3.org/2000/svg" viewBox="0 0 477.13 142.99"><defs><style>.cls-1{fill:#f79f51;}</style></defs><title>flints</title><g id="Layer_2" data-name="Layer 2"><g id="Layer_2-2" data-name="Layer 2"><path class="cls-1" d="M106,64.48c-.74-.41-2.63,1.81-4,3.44-2.09,2.46-4.26,5-6.49,5-.83,0-3.13-1.87-3.77-2.6a1.41,1.41,0,0,1-.46-1.07c.3-2.27,3.54-4,6.68-5.69,1.49-.8,4-2.14,4-2.7,0-1.08-1.3-3-2.18-3.22-.58,0-2.53,2.13-3.69,3.45-2.44,2.75-5,5.59-7.13,5.27-.82-.12-2.93-2.6-2.81-3.53.27-2,2.82-3.7,5.52-5.46,2.22-1.44,4.73-3.08,4.93-4.52.44-3.32-6-9.46-8.87-11.89C84.8,42.44,66,52.12,65.16,58.77c-.66,5,2,11.94,7.55,19.55,4.69,6.46,10.84,12.5,15.68,15.4,1.62,1,10.06-2.8,25.84-17C113.3,74.75,109.21,66.27,106,64.48Z"/><path d="M115.66,76.68c-.2-.45-5-11.12-9-13.36-1.69-1-3.54,1.22-5.68,3.74-1.81,2.13-3.86,4.55-5.4,4.55a11.29,11.29,0,0,1-3-2.3c.36-1.56,3.46-3.22,6-4.57,2.73-1.46,4.7-2.52,4.69-3.87,0-1.56-1.61-4.13-3.19-4.51-1.24-.3-2.64,1.19-5,3.86-1.89,2.13-4.47,5-5.85,4.86A7.19,7.19,0,0,1,87.5,63c.26-1.42,2.73-3,4.91-4.45,2.7-1.75,5.25-3.41,5.52-5.46.64-4.81-8.62-12.51-9.68-13.37l-.33-.27-.38.19c-.92.45-22.64,11.14-23.69,19-1.59,12,14.53,30.68,23.86,36.27a2.64,2.64,0,0,0,1.38.33c6.34,0,22.9-14.62,26.4-17.78l.36-.32ZM88.41,93.75c-4.84-2.9-11-9-15.68-15.4-5.53-7.62-8.21-14.56-7.55-19.55C66.07,52.14,84.82,42.46,87.75,41c2.91,2.43,9.31,8.57,8.87,11.89-.19,1.44-2.71,3.08-4.93,4.52-2.7,1.75-5.25,3.41-5.52,5.46-.12.93,2,3.41,2.81,3.53,2.17.32,4.7-2.52,7.13-5.27,1.17-1.32,3.12-3.49,3.69-3.45.87.21,2.17,2.14,2.18,3.22,0,.56-2.5,1.9-4,2.7C94.84,65.28,91.6,67,91.3,69.28a1.41,1.41,0,0,0,.46,1.07c.64.73,2.94,2.6,3.77,2.6,2.23,0,4.39-2.55,6.49-5,1.38-1.63,3.27-3.85,4-3.44,3.17,1.79,7.26,10.27,8.21,12.31C98.47,91,90,94.72,88.41,93.75Z"/><path class="cls-1" d="M158.64,58.77c4.16-10-.7-36.63-6-47,0-.07-.5-.31-2,0-4.8.88-12.79,5.42-13.08,8S138.83,30,138.84,30.1l.52,2.59-1.68-2c-.19-.23-4.68-5.56-9.52-2.29-4.43,3-2.69,8.13-2.61,8.34l1.17,3.33-2.3-2.67c-.05-.06-5.08-5.89-6.89-7.65a1.91,1.91,0,0,0-1.33-.38c-2.42,0-7.14,1.92-10.93,4.64-2.49,1.79-3.07,2.94-3,3.19,4.56,9.62,19.23,30.07,29.85,33.22a6.87,6.87,0,0,0,5.74-.47c5.39-3.31,2.06-16.82,2-17l-.65-2.57,1.79,2c2.82,3.1,10.94,10.88,14.59,9.7A5.22,5.22,0,0,0,158.64,58.77Z"/><path d="M153.84,11.17c-.43-.84-1.53-1.09-3.37-.75-4.53.83-13.75,5.5-14.16,9.19-.21,1.88.46,6.15.92,8.7-2-1.65-5.78-3.75-9.75-1.07a8,8,0,0,0-3.56,7.43c-1.66-1.89-4.19-4.75-5.4-5.93-2.47-2.39-10.31,1.52-14,4.14-2.81,2-3.95,3.64-3.38,4.83,3.77,8,18.91,30.44,30.67,33.93a10.34,10.34,0,0,0,2.94.46A7.27,7.27,0,0,0,138.63,71c4.77-2.93,3.85-11.84,3.1-16.11,3.23,3.27,10.27,9.7,14.36,8.38,1.59-.51,2.85-1.87,3.74-4C164.15,49,159.24,21.74,153.84,11.17ZM141.13,52.33l-1.79-2L140,53c0,.14,3.37,13.65-2,17a6.87,6.87,0,0,1-5.74.47C121.64,67.3,107,46.85,102.41,37.23c-.12-.25.46-1.4,3-3.19,3.79-2.72,8.51-4.64,10.93-4.64a1.91,1.91,0,0,1,1.33.38c1.81,1.75,6.84,7.59,6.89,7.65l2.3,2.67-1.17-3.33c-.08-.22-1.82-5.34,2.61-8.34,4.84-3.27,9.33,2.06,9.52,2.29l1.68,2L139,30.13c0-.08-1.56-7.82-1.28-10.33s8.28-7.15,13.08-8a3.88,3.88,0,0,1,2,0c5.29,10.36,10.15,37,6,47-.74,1.78-1.72,2.88-2.92,3.26-3.79,1.15-11.92-6.62-14.73-9.72Z"/><path class="cls-1" d="M201.26,25.47A25,25,0,0,0,191.07,9.21a18.58,18.58,0,0,0-10.4-3.28,17.18,17.18,0,0,0-3.44.35c-10.93,2.23-17.91,14.47-15.55,27.29a24.84,24.84,0,0,0,10.14,16.16,18.26,18.26,0,0,0,13.93,3C196.66,50.46,203.61,38.25,201.26,25.47Zm-17.57,9.9A5,5,0,0,1,179,31.7c-.4-2.48,1.33-4.87,3-5.2a5.12,5.12,0,0,1,3.56,1.14A3.49,3.49,0,0,1,187.13,30a6.23,6.23,0,0,1-1.21,4.32,2.86,2.86,0,0,1-2,1Z"/><path d="M202.57,25.23A26.31,26.31,0,0,0,191.82,8.11,19.47,19.47,0,0,0,177,5c-11.64,2.37-19.08,15.31-16.59,28.83a26.17,26.17,0,0,0,10.7,17,20,20,0,0,0,11.2,3.53A18.72,18.72,0,0,0,186,54C197.63,51.62,205,38.72,202.57,25.23Zm-30.74,24.5a24.84,24.84,0,0,1-10.14-16.16c-2.36-12.82,4.62-25.06,15.55-27.29a17.18,17.18,0,0,1,3.44-.35,18.58,18.58,0,0,1,10.4,3.28,25,25,0,0,1,10.19,16.26c2.35,12.78-4.6,25-15.51,27.21A18.26,18.26,0,0,1,171.83,49.73Z"/><path class="cls-1" d="M283.8,12.4c-4.67-2-12.42-4.48-14.51-3-1.68,1.21-2.14,8.27-2,12.44l.08,3.12L266,22.17c-3.3-6.93-9.8-17.56-13.25-16.61-8.5,2.38-8.89,33.56-8.31,46,3.69,1.4,12.49,4.19,14.83,2.49,1.69-1.22,2.15-8.32,2-12.51l-.07-2.84,1.32,2.52c2.29,4.36,9.15,15.77,13.33,16.27a2.39,2.39,0,0,0,2-.72C284.26,50.9,283.88,16.62,283.8,12.4Z"/><path d="M285.12,12v-.42l-.39-.17c-1.29-.57-12.74-5.51-16.22-3-2,1.45-2.48,7.21-2.58,10.77-.92-1.76-2.28-4.23-3.83-6.63-4-6.23-7.2-8.92-9.73-8.21C241,7.47,243,50.21,243.12,52v.43l.4.16c1.32.52,13,5,16.49,2.49,2-1.48,2.51-7.46,2.59-11,2.62,4.59,8.57,14.16,13.1,14.7h.43a3.78,3.78,0,0,0,2.59-1.08C286,51.13,285.16,13.54,285.12,12Zm-9.24,45.51c-4.18-.5-11-11.91-13.33-16.27l-1.32-2.52.07,2.84c.1,4.19-.36,11.29-2,12.51-2.35,1.7-11.14-1.09-14.83-2.49-.58-12.4-.19-43.58,8.31-46,3.45-1,10,9.67,13.25,16.61L267.37,25l-.08-3.12c-.1-4.17.36-11.23,2-12.44,2.09-1.51,9.84,1,14.51,3,.07,4.22.46,38.5-6,44.34a2.39,2.39,0,0,1-1.92.69Z"/><path class="cls-1" d="M332.3,24.25c-6.12-3.69-21.78-11.94-26.73-9.28-8.91,4.78-12.88,39.26-13.33,43.45,4.39,2.63,11.77,6.14,14,4.93,3.37-1.81,5.91-12.94,6.6-17.08l.15-.88.8.39c2.32,1.14,8.82,3.83,11,2.65a5.14,5.14,0,0,0,1.38-2.82,2.46,2.46,0,0,0,0-1.41c-1-1.15-4.7-2-7.44-2.69s-4-1-4.47-1.5c-.13-.15-.54-.59-.25-2.29.13-.75.45-2,1.06-2.36,1.16-.59,3.27.43,6.63,2.15,2.3,1.18,4.88,2.53,6.11,2.43S331,32.54,332.3,24.25Z"/><path d="M333.37,23.35c-.88-.54-21.67-13.17-28.43-9.54-10.06,5.4-13.91,43.3-14.07,44.91v.42l.36.22c1,.64,9.25,5.57,13.87,5.57a3.9,3.9,0,0,0,1.85-.39c4.08-2.19,6.48-13.68,7.13-17.17,2.34,1.07,8.7,3.72,11.43,2.25,1-.51,1.77-2.31,2-3.74a3.17,3.17,0,0,0-.31-2.51c-1.23-1.49-4.91-2.37-8.15-3.13a22.64,22.64,0,0,1-3.76-1.06,5.54,5.54,0,0,1,.48-2.64c.72-.17,3.61,1.29,5.35,2.18,2.69,1.38,5.23,2.67,6.8,2.57,2.88-.2,5-12.15,5.76-17.27l.07-.44ZM321.72,37.53c-3.36-1.72-5.48-2.75-6.63-2.15-.61.32-.93,1.61-1.06,2.36-.3,1.69.11,2.14.25,2.29.5.54,1.88.89,4.47,1.5s6.49,1.54,7.44,2.69c.08.1.2.53,0,1.41a5.14,5.14,0,0,1-1.38,2.82c-2.2,1.18-8.7-1.51-11-2.65l-.8-.39-.15.88c-.69,4.14-3.23,15.27-6.6,17.08-2.26,1.21-9.65-2.3-14-4.93.45-4.2,4.42-38.67,13.33-43.45,5-2.67,20.62,5.58,26.73,9.28C331,32.56,329,39.85,327.85,40S324,38.71,321.72,37.53Z"/><path class="cls-1" d="M352.88,77.1C354.8,73,356.13,66.66,355,64.59c-1.25-2.23-8-4.75-10.49-5.53l-.75-.24.36-.7c3.13-6.09,11-22.74,10-26.67-.71-2.58-8.73-5-13.82-5.89-7.48,5.54-15,39.38-15.9,43.73,2.84,1.72,20,12,26.35,10.79C351,80,351.83,79.33,352.88,77.1Z"/><path d="M356.14,64c-1.5-2.69-8.15-5.11-10.51-5.91,2.15-4.24,11-22.14,9.7-26.93-1.18-4.29-13.71-6.64-15.14-6.89h-.26l-.22.15c-8.47,5.66-16.44,43.56-16.77,45.17l-.09.46.39.25c.78.49,18.3,11.32,26.41,11.32a7.07,7.07,0,0,0,1.28-.11c1-.19,2.08-1.45,3.16-3.74C355.94,73.7,357.69,66.73,356.14,64Zm-31.81,5.36c.94-4.35,8.42-38.19,15.9-43.73,5.08.94,13.11,3.31,13.82,5.89,1.08,3.92-6.82,20.58-10,26.67l-.36.7.75.24c2.5.78,9.25,3.29,10.49,5.53,1.16,2.07-.18,8.42-2.09,12.51-1,2.24-1.88,2.93-2.2,3-6.27,1.12-23.47-9.17-26.31-10.85Z"/><path class="cls-1" d="M372.9,39.58c-9.29,3.93-16.16,38-17,42.06,4.65,3.69,11.69,8,13.36,6.34,8.09-7.85,16.1-38.2,17.13-42.19C382.29,42.75,375.25,38.58,372.9,39.58Z"/><path d="M387.59,45c-1.14-.85-11.31-8.28-15.21-6.63-10.48,4.44-17.52,41.84-17.81,43.43l-.07.39.31.25c1.7,1.37,9.2,7.21,13.44,7.21a2.75,2.75,0,0,0,2-.7c8.9-8.63,17.25-41.84,17.6-43.25l.11-.43ZM356,81.63c.79-4,7.66-38.12,17-42.06,2.35-1,9.39,3.17,13.54,6.21-1,4-9,34.34-17.13,42.19C367.64,89.6,360.61,85.32,356,81.63Z"/><path class="cls-1" d="M423.53,63.63c-4.06-3.16-11-7.57-13.41-6.64-1.9.74-4,7.46-4.86,11.52l-.68,3.17L404,68.5c-1.57-8-5.37-20.56-8.86-20.12-6.73.9-15.5,30.68-18.45,42.64,4.06,3.16,11,7.55,13.38,6.63,1.91-.74,4-7.5,4.88-11.58l.67-3.16.63,3.17c1.54,7.81,5.32,20.18,8.89,20.18h0C413.92,106.15,421.32,75.83,423.53,63.63Z"/><path d="M424.67,62.83c-1.12-.89-11.08-8.63-15-7.08-2.26.88-4,6.22-5,9.66-1.4-6.06-5-19-9.73-18.35-8.94,1.2-18.6,39.67-19.67,44.06l-.1.42.33.26c1.12.89,11.07,8.62,15,7.09,2.28-.89,4.09-6.31,5-9.76.48,2,1.21,4.85,2.14,7.67,2.39,7.26,4.83,10.79,7.44,10.79h0c11.79-.12,19.44-42.31,19.76-44.1l.07-.39Zm-19.55,43.41c-3.57,0-7.35-12.37-8.89-20.18l-.63-3.17L394.93,86c-.87,4.08-3,10.84-4.88,11.58-2.37.92-9.32-3.47-13.38-6.63,3-12,11.72-41.74,18.45-42.64,3.48-.44,7.28,12.1,8.86,20.13l.62,3.18.68-3.17c.87-4.06,3-10.78,4.86-11.52,2.4-.93,9.35,3.49,13.41,6.64-2.22,12.2-9.61,42.52-18.4,42.62Z"/><path class="cls-1" d="M445.07,94.56c.8.65,1.89,1.54,2.36,1.44,2.75-.65,5.82-9.78,7.19-15.66-5.53-4.57-19.94-15.15-25.21-13.26-3,1.06-6,11-7.19,15.44,1.58.4,5,1.38,5.72,2.73a1.34,1.34,0,0,1,.12,1.11c-2,6-10.13,21.9-11.68,24.91,4,3.4,10.8,8.06,13.06,7,2.7-1.31,4.07-6.81,5.4-12.13,1.53-6.12,3-11.91,6.54-13.18h0C442.54,92.49,443.77,93.5,445.07,94.56Z"/><path d="M455.78,79.58c-.8-.67-19.62-16.32-26.82-13.76-4.36,1.55-7.82,15.45-8.2,17l-.16.66.66.15c2.75.61,5.44,1.73,5.53,2.28-2.13,6.36-11.74,25-11.84,25.2l-.24.47.4.34c1,.87,9.14,7.76,13.58,7.76a3,3,0,0,0,1.33-.27c3.26-1.58,4.64-7.13,6.11-13,1.38-5.52,2.8-11.22,5.7-12.25.46-.16,1.62.8,2.38,1.43,1.23,1,2.4,2,3.51,1.7,4.55-1.07,7.91-15.42,8.27-17l.09-.4ZM441.39,92.91c-3.56,1.27-5,7.06-6.54,13.18-1.33,5.32-2.71,10.82-5.4,12.13-2.26,1.1-9-3.56-13.06-7,1.54-3,9.68-19,11.68-24.91a1.34,1.34,0,0,0-.12-1.11c-.76-1.35-4.14-2.33-5.72-2.73,1.14-4.49,4.22-14.38,7.19-15.44,5.27-1.88,19.68,8.7,25.21,13.26-1.37,5.88-4.44,15-7.19,15.66-.48.1-1.57-.78-2.36-1.44-1.29-1.06-2.52-2.07-3.67-1.65Z"/><path class="cls-1" d="M475.8,92.13c-.19-1.76-2.48-2.85-4.51-3.81-.53-.25-1-.49-1.48-.73-3.24-1.76-6.27-2.21-9-1.34-3.21,1-6,3.8-8.13,8.25a28.21,28.21,0,0,0-2.57,9.85,16.13,16.13,0,0,1-1.15,5.38,4.08,4.08,0,0,1-2.33,2.24,3.35,3.35,0,0,1-2.66-.33l-.28-.18c-2,2.79-5.83,8.8-5.46,11.18.29,1.88,2.36,2.73,4.56,3.63a23.81,23.81,0,0,1,2.31,1,12,12,0,0,0,9.49,1,14,14,0,0,0,8.16-7.46,23.7,23.7,0,0,0,2.54-11.16v-.18a9.73,9.73,0,0,1,.65-4.56,3.78,3.78,0,0,1,2.13-2.08,2.72,2.72,0,0,1,2.16.25l.17.1C472.3,100.47,476,94.52,475.8,92.13Z"/><path d="M477.12,92c-.27-2.5-3-3.81-5.26-4.87-.51-.24-1-.47-1.41-.7-3.57-1.94-7-2.42-10-1.44-3.57,1.14-6.57,4.14-8.92,8.93a29.37,29.37,0,0,0-2.7,10.29,15.29,15.29,0,0,1-1,4.94,2.8,2.8,0,0,1-1.54,1.56,2,2,0,0,1-1.62-.23,1.54,1.54,0,0,1-.48-.42l-.54-.71-.53.71c-.69.93-6.71,9.21-6.15,12.79.41,2.63,3,3.7,5.37,4.65a22.45,22.45,0,0,1,2.18,1,13.67,13.67,0,0,0,6.54,1.7,13.1,13.1,0,0,0,4-.62,15.33,15.33,0,0,0,9-8.14,25.17,25.17,0,0,0,2.67-11.72v-.21a8.68,8.68,0,0,1,.52-4,2.56,2.56,0,0,1,1.34-1.4,1.4,1.4,0,0,1,1.13.16,2.31,2.31,0,0,1,.47.38l.55.54.45-.62C471.72,103.65,477.5,95.53,477.12,92Zm-6.9,11.11a2.72,2.72,0,0,0-2.16-.25,3.78,3.78,0,0,0-2.13,2.08,9.73,9.73,0,0,0-.65,4.56v.18a23.7,23.7,0,0,1-2.54,11.16,14,14,0,0,1-8.16,7.46,12,12,0,0,1-9.49-1,23.81,23.81,0,0,0-2.31-1c-2.19-.9-4.26-1.74-4.56-3.63-.37-2.38,3.47-8.38,5.46-11.18l.28.18a3.35,3.35,0,0,0,2.66.33,4.08,4.08,0,0,0,2.33-2.24,16.13,16.13,0,0,0,1.15-5.38,28.21,28.21,0,0,1,2.57-9.85c2.18-4.45,4.92-7.23,8.13-8.25,2.74-.87,5.78-.42,9,1.34.44.24,1,.48,1.48.73,2,1,4.32,2,4.51,3.81.25,2.38-3.5,8.33-5.4,11.07Z"/><path class="cls-1" d="M233,33.09l.5-.42a16.7,16.7,0,0,0,6-12.12c.28-9.35-6.28-17.78-14-18-4.51-.78-16.68-2.27-19.88.14-2.16,1.62-1.79,24.61-.34,45.6,3.81,1,12.67,2.62,14.72.58a5.56,5.56,0,0,0-.19-2.22c-.29-1.5-.59-3.06.61-3.46a1.29,1.29,0,0,1,.41-.07,1.18,1.18,0,0,1,.58.15c.77.43,1.07,1.64,1.42,3.06.22.88.62,2.5,1,2.62,3.16.91,15.69,1.32,18.71,1.4-.16-5.53-9.07-16.6-9.17-16.72Zm-8.89-7.25-.12.08h-.14a15.15,15.15,0,0,1-2.55.27c-1.34,0-1.56-.38-1.67-.57s-1.16-5.45.12-6.65c.2-.18.72-.67,3.9.39.42,0,1.06.32,1.37,1.46a6.65,6.65,0,0,1,.19,1.86v.51a2.63,2.63,0,0,1-1.07,2.65Z"/><path d="M234.87,33.25a18,18,0,0,0,6-12.67c.3-10-6.86-19.12-15.23-19.39-.67-.12-16.5-2.85-20.82.39-3.74,2.81-1.35,39.84-.84,47.23v.48l.46.12c1.36.36,13.39,3.39,16.46.36.71-.7.46-2,.18-3.42a9.28,9.28,0,0,1-.24-1.83,10,10,0,0,1,.66,2.08c.41,1.67.81,3.25,2,3.58,3.74,1.08,19.05,1.46,19.7,1.47h.61l.06-.61C244.47,45.84,236.76,35.66,234.87,33.25Zm-11,15.65c-.41-.12-.81-1.75-1-2.62-.35-1.41-.65-2.63-1.42-3.06a1.18,1.18,0,0,0-.58-.15,1.29,1.29,0,0,0-.41.07c-1.2.4-.9,2-.61,3.46a5.56,5.56,0,0,1,.19,2.22c-2.06,2-10.92.37-14.72-.58-1.45-21-1.81-44,.34-45.6,3.2-2.4,15.37-.92,19.88-.14,7.76.26,14.32,8.69,14,18a16.7,16.7,0,0,1-6,12.12L233,33l.41.5c.09.12,9,11.19,9.17,16.72-3,0-15.56-.45-18.72-1.36Z"/><path class="cls-1" d="M73,107.73c2.77.25,7.91-5.73,10-8.49C80.79,95.64,63.44,67.76,55.19,64c-.88-.4-2.23-.12-3.8.79-3.29,1.92-6.61,6.06-6.83,8.52-.15,1.7,2.88,4.77,5.09,7s3.47,3.57,3.34,4.54C53,85,52.43,89,50.54,89h0c-1,0-2.3-1.43-4.91-4.37-2.28-2.57-5.4-6.08-7-6.24h-.31c-1.94,0-5,1.61-7.16,3.88-1.77,1.81-2.69,3.65-2.52,5C30,99,53.18,119.76,56.33,122.52,59.57,120.68,66.76,116,67,113c.16-1.82-3-4.91-5.26-7.18s-3.47-3.48-3.4-4.46c.1-1.44,3.58-4.06,5-4.06h0c1,0,1.88,1.34,3.72,4.07S71.27,107.57,73,107.73Z"/><path d="M84.3,99c-.79-1.3-19.48-32-28.62-36.16-1.3-.6-3-.3-5,.86-3.31,1.93-7.2,6.32-7.48,9.55C43,75.54,46,78.6,48.66,81.3a20.26,20.26,0,0,1,3,3.44c-.19,1.44-.8,2.93-1.11,3-.58-.12-2.54-2.32-4-3.92-2.82-3.18-5.74-6.47-7.85-6.68-2.76-.27-6.36,2-8.54,4.25-1.21,1.23-3.18,3.67-2.89,6.13,1.56,12.94,27.46,35.38,28.56,36.33l.35.3.4-.22c1.17-.64,11.39-6.42,11.78-10.8.21-2.44-2.9-5.52-5.64-8.24-1.25-1.23-3-2.92-3-3.42.1-.7,2.86-2.83,3.59-2.83h0c.47.16,1.77,2.09,2.71,3.49,2.12,3.15,4.52,6.71,6.84,6.94,4.2.42,10.71-8.38,11.44-9.39l.26-.36ZM63.37,97.35h0c-1.39,0-4.87,2.62-5,4.06-.07,1,1.12,2.2,3.4,4.46S67.18,111.18,67,113c-.26,3-7.45,7.68-10.69,9.53C53.18,119.76,30,99,28.58,87.35c-.17-1.4.75-3.24,2.52-5,2.21-2.27,5.21-3.87,7.16-3.87h.31c1.58.15,4.71,3.67,7,6.24,2.61,2.94,3.91,4.35,4.91,4.37h0c1.89,0,2.43-4,2.45-4.19.13-1-1-2.16-3.34-4.54s-5.23-5.32-5.09-7c.22-2.46,3.53-6.6,6.83-8.52,1.57-.92,2.92-1.2,3.8-.79,8.25,3.78,25.59,31.66,27.81,35.26-2.07,2.76-7.21,8.74-10,8.49-1.69-.17-4.1-3.74-5.86-6.36s-2.74-4.1-3.7-4.13Z"/><path class="cls-1" d="M37.42,121.35c-4.72-3.92-9.18-7.62-8.87-11.55.1-1.23,1.51-2,2.88-2.79.91-.51,2.17-1.21,2.21-1.73.27-3.37-7.33-10.45-10.71-13.26C20,93.7,1.88,104.41,1.34,111.09,1,115.36,8,124.13,12,124.49c.37,0,1.41-1.38,1.95-2.14.88-1.25,1.78-2.54,2.78-2.54a1.29,1.29,0,0,1,.71.22c4.93,3.18,15.11,18.21,17.13,21.25,4.58-2.55,11.27-7.22,11.22-9.86C45.77,128.27,41.53,124.75,37.42,121.35Z"/><path d="M38.27,120.33c-4.25-3.53-8.65-7.18-8.39-10.42,0-.52,1.29-1.22,2.21-1.73,1.37-.77,2.78-1.56,2.88-2.79.39-4.81-10.33-13.69-11.55-14.69l-.35-.29-.39.22C21.78,91.13.68,103,0,111c-.4,5,7.17,14.41,11.91,14.83,1.18.12,2.14-1.26,3.15-2.7.47-.67,1.35-1.92,1.68-2,5.14,3.31,17,21.19,17.08,21.37l.33.51.54-.29c1.28-.69,12.54-6.9,12.45-11.34C47.09,127.64,42.81,124.09,38.27,120.33Zm-3.66,21c-2-3-12.2-18.07-17.13-21.25a1.29,1.29,0,0,0-.71-.22c-1,0-1.9,1.29-2.78,2.54-.53.76-1.57,2.17-1.95,2.14-4-.36-11.05-9.13-10.71-13.4C1.88,104.41,20,93.7,22.93,92c3.38,2.81,11,9.89,10.71,13.26,0,.52-1.29,1.22-2.21,1.73-1.37.77-2.78,1.56-2.88,2.79-.32,3.93,4.15,7.63,8.87,11.55,4.1,3.41,8.34,6.93,8.41,10.08.05,2.68-6.64,7.35-11.22,9.9Z"/><path d="M187.16,30a3.49,3.49,0,0,0-1.53-2.35,5.12,5.12,0,0,0-3.56-1.14c-1.7.33-3.43,2.72-3,5.2a5,5,0,0,0,4.65,3.67H184a2.86,2.86,0,0,0,2-1A6.23,6.23,0,0,0,187.16,30Zm-3.29,4h0a3.7,3.7,0,0,1-3.51-2.55c-.29-1.77,1-3.49,2-3.68h.2a4.39,4.39,0,0,1,2.31.92,2.26,2.26,0,0,1,1,1.4,5,5,0,0,1-.9,3.33,1.52,1.52,0,0,1-1.1.63Z"/><path d="M225.25,22.7a6.65,6.65,0,0,0-.19-1.86c-.32-1.14-1-1.41-1.37-1.46-3.18-1.06-3.7-.57-3.9-.39-1.28,1.2-.31,6.33-.12,6.65s.33.57,1.67.57a15.15,15.15,0,0,0,2.55-.27H224l.12-.08a2.63,2.63,0,0,0,1.12-2.63A4.78,4.78,0,0,1,225.25,22.7Zm-4.45,2.16c-.24-1-.52-4.13-.16-4.82a11.36,11.36,0,0,1,2.69.63h.19a2.93,2.93,0,0,1,.39,2v.59c0,.73,0,1.07-.42,1.41A11.73,11.73,0,0,1,220.8,24.86Z"/></g></g></svg>