<svg xmlns="http://www.w3.org/2000/svg" viewBox="0 0 307.5 101.29"><defs><style>.cls-1{fill:#f79f51;}.cls-2{fill:#231f20;}</style></defs><title>mountcarmel</title><g id="Layer_2" data-name="Layer 2"><g id="Layer_5" data-name="Layer 5"><path class="cls-1" d="M30,91c-1.31-.2-3.15-4.26-3.15-4.26l-.27,3.08-3.09-.61s3.35,3,3.15,4.26c-.43,2.86-7,8.59-9.31,6.9C11.26,96-2.73,80.63,1.33,74.29,4.12,70,19.59,80.42,19.59,80.42s-6-17.88-1.1-19.24c7.24-2,18.67,14.92,20.8,22.9C40.06,86.88,32.87,91.41,30,91Z"/><path class="cls-2" d="M18.42,101.29a2.39,2.39,0,0,1-1.43-.43A62.7,62.7,0,0,1,5,88.42C1.78,83.91-1.6,77.74.83,73.94a2.87,2.87,0,0,1,1.93-1.25c4-.83,12.3,4.06,15.72,6.22C17.29,75,14.74,65.62,16.62,62.05a2.79,2.79,0,0,1,1.72-1.51,7.25,7.25,0,0,1,5.56,1.07c6.9,3.93,14.36,16,16,22.27.26,1-.17,2.15-1.26,3.37-2,2.25-6.36,4.67-8.76,4.32h0c-.93-.14-1.9-1.43-2.62-2.66l-.14,1.6-1.65-.33c1,1,1.94,2.37,1.8,3.31-.37,2.46-4.21,6.13-7,7.3A4.9,4.9,0,0,1,18.42,101.29ZM3.78,73.87a3.88,3.88,0,0,0-.77.07,1.63,1.63,0,0,0-1.11.69c-3.63,5.65,9.53,20.64,15.83,25.2a2.3,2.3,0,0,0,2.08-.15c2.58-1.09,6-4.51,6.22-6.32.08-.52-1.3-2.24-2.95-3.69L21.3,88.1,26,89l.43-4.78,1,2.2c.91,2,2.15,3.82,2.67,3.89h0c1.75.25,5.73-1.79,7.63-3.91.77-.87,1.12-1.64,1-2.19-1.57-5.9-8.9-17.79-15.42-21.5a6,6,0,0,0-4.58-1,1.55,1.55,0,0,0-.95.84C16,65.89,19,76.38,20.25,80.15l.61,1.79-1.57-1.06C16.21,78.88,7.87,73.87,3.78,73.87Z"/><path class="cls-1" d="M54.35,74.84a15.25,15.25,0,1,1,5.19-20.93l0,0A15.24,15.24,0,0,1,54.35,74.84Zm-6.76-11.3a2.1,2.1,0,1,0-2.88-.72h0A2.1,2.1,0,0,0,47.59,63.54Z"/><path class="cls-2" d="M46.49,77.65a15.87,15.87,0,1,1,8.17-2.27h0A15.84,15.84,0,0,1,46.49,77.65Zm0-30.48a14.61,14.61,0,1,0,12.57,7.11A14.47,14.47,0,0,0,46.49,47.17Zm0,17.37a2.74,2.74,0,0,1-.67-.08,2.71,2.71,0,1,1,.67.08Zm0-4.19a1.46,1.46,0,1,0,.75,2.71h0a1.46,1.46,0,0,0-.75-2.71Z"/><path class="cls-1" d="M80.54,57c-6.55,3-16-.27-20.07-5.4,0,0-9.73-10-8.29-14,1-2.72,7.81-6.93,10.53-5.94,3.95,1.44,8.27,15,8.27,15a1.5,1.5,0,0,0,2.71-1.26S65.16,34.12,66.6,30.17c1-2.72,7.5-6.9,10.22-5.9C80.77,25.71,85.44,40,85.44,40,87.49,47.2,87.1,54,80.54,57Z"/><path class="cls-2" d="M74.92,58.81C69.17,58.81,63,55.89,60,52,59,51,50,41.63,51.58,37.43c.63-1.72,2.94-3.55,4.89-4.69,1-.58,4.35-2.39,6.45-1.62,1.36.5,2.72,2.19,3.94,4.29C66,33.3,65.51,31.33,66,30c.63-1.72,2.86-3.54,4.73-4.67C71.93,24.61,75,23,77,23.73c4.12,1.5,8.52,14.59,9,16.08,2.52,9,.75,15-5.24,17.79h0A13.92,13.92,0,0,1,74.92,58.81ZM61.75,32.2a10.4,10.4,0,0,0-4.64,1.64c-2.18,1.28-3.93,2.9-4.34,4-1,2.6,4.49,9.54,8.15,13.3,3.92,4.94,13,8.21,19.35,5.26,5.34-2.49,6.88-8,4.56-16.26C83.56,36.29,79.6,26,76.6,24.89,74.23,24,68.09,28,67.2,30.41c-1.08,3,4.69,11.57,7,14.64l.07.11A2.13,2.13,0,0,1,70.4,47c-1.21-3.77-4.92-13.59-7.91-14.68a2.15,2.15,0,0,0-.73-.08Zm7.06,7a75.41,75.41,0,0,1,2.78,7.29.87.87,0,0,0,1.56-.14.84.84,0,0,0,0-.61,69.31,69.31,0,0,1-4.34-6.54Z"/><path class="cls-1" d="M99.79,32.81s4.93,6.26,4,8.13C102.5,43.54,92,45.19,92,45.19S77.12,22,82.4,16.66c2.7-2.74,14.66,4.67,14.66,4.67s-3.57-6-2.65-7.86c1.29-2.6,11-3.7,11-3.7s14.93,21.32,9.65,26.68C112.34,39.18,99.79,32.81,99.79,32.81Z"/><path class="cls-2" d="M91.7,45.88l-.21-.34a125.83,125.83,0,0,1-6.83-12.33c-4.19-8.84-5.1-14.56-2.71-17s9.64,1.24,13.45,3.39c-1-2.06-2.25-5-1.55-6.42,1.4-2.82,10.45-3.93,11.48-4h.38l.22.31a110.75,110.75,0,0,1,6.85,11.4c4.22,8.23,5.14,13.65,2.73,16.09-.47.48-3.25,2.47-13.66-2.37,1.51,2.19,3.25,5.24,2.53,6.71-1.36,2.75-10.45,4.31-12.25,4.59ZM84.23,16.67a1.9,1.9,0,0,0-1.38.42c-4,4,5.29,20.8,9.47,27.39,4-.66,10.1-2.22,10.9-3.83.45-.9-1.67-4.58-3.93-7.45l.79-1c4.69,2.38,12.78,5.51,14.51,3.75,4-4-5.32-19.5-9.5-25.55-3.64.45-9.31,1.7-10.11,3.3-.53,1.07,1.22,4.88,2.63,7.25l-.88.87c-3.94-2.39-9.68-5.15-12.5-5.15Z"/><path class="cls-1" d="M129.94,14.54c-2.39,3.72,6.16,13.57,3.77,17.3-1.57,2.44-11.32,2.47-11.32,2.47L118.62,17s-3.77,1.71-4.81,1c-2.44-1.57-4-8.89-2.47-11.32,2.89-4.5,20.89-4.56,20.89-4.56s4,8.89,2.47,11.32C134,14.54,130.6,13.54,129.94,14.54Z"/><path class="cls-2" d="M121.88,36l-3.72-17c-1.43.59-3.69,1.33-4.69.69-2.71-1.74-4.4-9.5-2.66-12.2,3-4.66,19.55-4.84,21.43-4.85h.41l.17.38c.43.94,4.13,9.28,2.42,11.93-.52.8-1.74.81-2.92.81-.55,0-1.71,0-1.85.23h0c-1,1.57.49,4.86,1.93,8,1.66,3.65,3.22,7.1,1.84,9.26-1.7,2.65-10.82,2.76-11.86,2.76Zm-2.8-18.84,3.83,17.56c3.68-.06,9.32-.68,10.28-2.17s-.49-4.86-1.93-8c-1.66-3.65-3.22-7.1-1.84-9.26h0c.52-.81,1.74-.81,2.92-.81.55,0,1.71,0,1.85-.23,1-1.51-.86-7-2.34-10.34-5.2.06-17.79.9-19.95,4.26-1.37,2.14.14,9.07,2.28,10.44.39.25,2.39-.27,4.2-1.09Z"/><path class="cls-1" d="M167.93,28c.14,3.9-2.34,4.28-6.53,4.2a16.3,16.3,0,0,1-15.73-15.5A15.28,15.28,0,0,1,160.32.81c4.19-.17,7.89-1,8,2.91.12,3-1.24,9.89-1.6,11.13,0,.12-1-.29-1.17-.31a15.36,15.36,0,0,0-3.62-.54c-1.12.43-1.3.61-1.62,1.44a3.28,3.28,0,0,0,.4,2.92c.48.53,4.4.11,5.41-.08a.24.24,0,0,1,.28.15A55.34,55.34,0,0,1,167.93,28Z"/><path class="cls-2" d="M162.22,32.83h-.83A17,17,0,0,1,145,16.72,15.92,15.92,0,0,1,160.29.19L161.94.1c2.5-.16,4.66-.29,6,.89A3.67,3.67,0,0,1,169,3.72c.12,3.1-1.28,10.14-1.63,11.33l-.08.26-.26.14c-.32.16-.66.06-1.4-.21l-.2-.07-.48-.1a16.8,16.8,0,0,0-2.79-.45c-.94.37-1,.43-1.22,1.07a2.71,2.71,0,0,0,.28,2.26,20,20,0,0,0,4.83-.27.89.89,0,0,1,1,.58A55.57,55.57,0,0,1,168.6,28h0a4.54,4.54,0,0,1-1.06,3.52C166.43,32.54,164.73,32.83,162.22,32.83Zm2.09-31.57a18.49,18.49,0,0,0-2.29.1l-1.68.09a14.64,14.64,0,0,0-14,15.21,15.67,15.67,0,0,0,15.07,14.88c2.56,0,4.33-.1,5.18-1a3.38,3.38,0,0,0,.7-2.58h0a57.67,57.67,0,0,0-1.36-9c-1.16.17-4.9.65-5.65-.17a3.87,3.87,0,0,1-.52-3.58c.41-1,.72-1.31,2-1.8.49-.19,1.46,0,3.47.41l.5.11.34.11.23.08a56.52,56.52,0,0,0,1.43-10.36,2.48,2.48,0,0,0-.67-1.83,4.14,4.14,0,0,0-2.75-.67Zm2,17.66Zm-.13-4.24Z"/><path class="cls-1" d="M186.33,30.19l-3.7-.35s-.27,1-.53,1.11c-2.7,1.53-12.34,1.94-12.34-1.16,0-11.75,9.12-29.46,17.48-28.67S200.58,21.28,199,32.54c-.43,3.07-10,.83-12.34-1.17C186.41,31.18,186.33,30.19,186.33,30.19Zm-2.62-2.7,2,.19s.16-3-.62-3.11-1.38,3-1.38,3Z"/><path class="cls-2" d="M195.8,34.7c-3.35,0-8-1.49-9.56-2.83a1.83,1.83,0,0,1-.48-1.09l-2.69-.25a1.83,1.83,0,0,1-.67,1c-2.27,1.28-9.19,1.91-12,.26a2.25,2.25,0,0,1-1.29-2c0-8.82,5.05-20.86,11-26.29,2.44-2.22,4.84-3.23,7.15-3,2.11.2,4.1,1.46,5.91,3.75,5.29,6.71,7.6,20.1,6.43,28.4a2.13,2.13,0,0,1-1.52,1.72A6.62,6.62,0,0,1,195.8,34.7Zm-8.69-3.76c1.78,1.43,8.11,3.15,10.54,2.22.58-.22.68-.51.71-.7,1.11-7.88-1.15-21.08-6.17-27.44-1.58-2-3.27-3.1-5-3.27-1.92-.18-4,.72-6.17,2.68-5.75,5.23-10.61,16.84-10.61,25.35,0,.12,0,.5.66.88,2.3,1.34,8.67.83,10.67-.24a3.69,3.69,0,0,0,.29-.76l.14-.51,4.76.45v.53a3.68,3.68,0,0,0,.18.81Zm-.56-2.53-3.82-.36s1-5.16,2.44-5,1.38,5.36,1.38,5.36Zm-2.11-1.36h.79s.08-2.39-.15-2.38-.64,2.38-.64,2.38Z"/><path class="cls-1" d="M223.49,29.67l2.68,11.5s-7.8-1.31-11.09-2.61c-1.07-.42-2.28-4-2.28-4s.15,3.2-.7,3.39c-3,.7-11.35-2.33-11.35-2.33S200.52,11,206.63,6.93c3-2,14.44,2,14.44,2,5.86,1.2,9.47,7.89,8.26,13.76A10.4,10.4,0,0,1,223.49,29.67ZM217.39,20l-1.55-.32-.55,2.68,1.55.32a1.35,1.35,0,0,0,1.6-1v0a1.38,1.38,0,0,0-1.1-1.6Z"/><path class="cls-2" d="M227,42,226,41.8c-.32,0-7.91-1.34-11.21-2.65a4,4,0,0,1-1.59-1.88c-.18.68-.49,1.18-1,1.3-3.2.73-11.37-2.22-11.71-2.35l-.42-.15v-.44c0-1-.16-25.06,6.17-29.23,3.2-2.12,13.8,1.49,15,1.91a10.86,10.86,0,0,1,7.12,5.41,13.1,13.1,0,0,1,1.55,9.07A10.85,10.85,0,0,1,224.19,30Zm-13.6-7.61c.59,1.76,1.49,3.45,1.91,3.61a69.9,69.9,0,0,0,10,2.41l-2.57-11,.45-.22a9.72,9.72,0,0,0,5.5-6.56,11.81,11.81,0,0,0-1.41-8.18,9.66,9.66,0,0,0-6.36-4.83c-3.17-1.1-11.69-3.57-14-2.07-4.67,3.08-5.62,20.63-5.6,27.71,2.51.88,8.21,2.62,10.5,2.17a7.22,7.22,0,0,0,.28-2.76Zm3.73-11a2.1,2.1,0,0,1-.42,0l-2.17-.45.81-3.93,2.17.45a2,2,0,0,1-.39,4ZM216,21.87l.93.19a.73.73,0,0,0,.29-1.43l-.93-.19Z"/><path class="cls-1" d="M242.28,48l1.86-5-2.73,1.44-1.15-2.9-1.86,5s-10.74-1.16-10.91-4c-.34-7.9,10.22-26.46,14.69-28,4.9-1.82,3.31,19,3.31,19s11.87-15.12,15.17-11.16c3.93,4.73-.72,24.75-6.06,29.94C252.49,54.35,242.28,48,242.28,48Z"/><path class="cls-2" d="M253.32,53.35c-3.33,0-9.33-3.53-11.38-4.8l-.44-.28,1.45-3.89-1.88,1-.81-2-1.45,3.88-.49,0c-10.73-1.17-11.4-4.09-11.42-4.67-.35-8.12,10.3-27,15.11-28.67a2,2,0,0,1,2,.28c2.75,2.1,2.51,12.83,2.27,17.48,2.77-3.32,9.15-10.46,12.9-10.51a2.4,2.4,0,0,1,2,.89c2.85,3.43,1.17,12.61.58,15.34-1.47,6.88-4.1,13-6.68,15.47A2.4,2.4,0,0,1,253.32,53.35ZM243,47.74c4.63,2.81,10.07,5.14,11.1,4.14,5.46-5.31,9.51-24.87,6-29.08a1.15,1.15,0,0,0-1-.43c-3.39,0-10.67,8.37-13.18,11.58l-1.3,1.65.16-2.09c.48-6.25.45-16.76-1.64-18.36a.74.74,0,0,0-.78-.1c-3.89,1.39-14.61,19.56-14.27,27.42.06,1.4,5,2.82,9.8,3.4l2.26-6,1.5,3.77,3.59-1.89Z"/><path class="cls-1" d="M258.86,56.22c-.87-7.27,6.76-22.86,11.9-26.77,2.2-1.68,19.54,8.68,19.54,8.68s-2,9.55-4.71,10.59c-2.29.88-6.66-4.86-9-4a1.34,1.34,0,0,0-.54,1.21c.88,2.28,8.07,1.69,9,4a3.37,3.37,0,0,1-1.35,3c-2.28.88-6.66-4.86-9-4a1.47,1.47,0,0,0-.59,1.33c.88,2.29,8.07,1.69,9,4,1,2.7-4.71,10.59-4.71,10.59S259.2,59.07,258.86,56.22Z"/><path class="cls-2" d="M278.64,65.65l-.43-.13c-18.18-5.53-19.89-8.45-20-9.22h0C257.33,49,265,33,270.35,29c.51-.39,1.69-1.29,11.27,3.65,4.57,2.36,8.93,5,9,5l.39.23-.09.44c-.21,1-2.16,9.92-5.1,11l-.32.09a2,2,0,0,1,.14.29,3.91,3.91,0,0,1-1.72,3.87.28.28,0,1,0-.22.5c1.13,2.94-4.18,10.36-4.79,11.19Zm-19.15-9.5c.14,1.15,7.3,4.53,18.66,8,2.13-3,5-8,4.36-9.62-.31-.82-2.28-1.23-4-1.59-2.25-.47-4.37-.92-4.94-2.38a2,2,0,0,1,1-2.15c1.46-.56,3.22.71,5.08,2.07,1.43,1,3.06,2.22,3.87,1.91a3,3,0,0,0,1-2.23c-.31-.82-2.28-1.23-4-1.59-2.25-.47-4.37-.92-4.94-2.38a1.89,1.89,0,0,1,.91-2c1.47-.56,3.22.71,5.08,2.07,1.43,1,3.06,2.22,3.87,1.91,1.66-.64,3.42-6.1,4.22-9.68-10.22-6.07-17.51-9.13-18.43-8.49-5,3.83-12.47,19.34-11.65,26.18Zm15.79-6.61a.85.85,0,0,0-.3,0,1.53,1.53,0,0,0-.21.57c.3.76,2.26,1.17,4,1.53l.49.1-.4-.29C277.58,50.59,276.15,49.54,275.28,49.54Zm1.89-4.26a.83.83,0,0,0-.3,0,1.77,1.77,0,0,0-.15.46c.3.74,2.26,1.15,4,1.52h.19l-.15-.11c-1.27-.87-2.71-1.9-3.59-1.9Z"/><path class="cls-1" d="M282.37,69.42c-2.26-7.3,7.84-23,13.19-26.17,2.49-1.49,9.44,2.47,10.35,5.22,1.39,4.2-8,15.81-8,15.81s8,2.08,8.75,4.41c.91,2.75-2.32,10.4-5.22,10.35C296.29,79,283.62,73.44,282.37,69.42Z"/><path class="cls-2" d="M301.49,79.68h0c-5.37-.08-18.36-5.76-19.7-10.08h0c-2.34-7.57,8-23.61,13.47-26.9,1.29-.78,3.21-.33,4.58.18,2.76,1,6,3.32,6.7,5.38,1.29,3.91-5.29,12.83-7.48,15.65,2.37.68,7.55,2.41,8.26,4.57s-.76,6.55-2.56,9C303.68,78.93,302.56,79.68,301.49,79.68Zm-4.54-36.14a2.08,2.08,0,0,0-1.06.24c-5.09,3-15.06,18.48-12.91,25.43h0c1.09,3.5,13.22,9.1,18.5,9.18.61,0,1.44-.6,2.23-1.67,1.73-2.35,2.9-6.24,2.37-7.85-.46-1.38-5.13-3.16-8.3-4l-1-.25.62-.77c2.54-3.15,8.91-12,7.86-15.21-.48-1.44-3.25-3.59-5.93-4.58A7.26,7.26,0,0,0,296.95,43.54Z"/></g></g></svg>