<svg xmlns="http://www.w3.org/2000/svg" viewBox="0 0 245.43 85.13"><defs><style>.cls-1{fill:#f79f51;}</style></defs><title>souther</title><g id="Layer_2" data-name="Layer 2"><g id="Layer_3" data-name="Layer 3"><path class="cls-1" d="M33.41,60.49A19.87,19.87,0,0,0,25.75,54L24.6,53.4a8.52,8.52,0,0,1-3.32-2.6,3.52,3.52,0,0,1-.64-2.7A2.74,2.74,0,0,1,22,46.36s.76-.45,1.39-.79c-2.23-5.31-6.08-13.33-7.79-14.09-1.43-.63-4.82,1.63-6.65,2.85-.5.34-1,.64-1.32.86a12.42,12.42,0,0,0-5.78,7.89A14,14,0,0,0,4,53.84c2,3,7.14,7.5,9.33,9.11a14.13,14.13,0,0,1,3.71,3.35,3.79,3.79,0,0,1,.67,2.92,3.15,3.15,0,0,1-1,1.68c-.08.44-.65.65-2.11,1.19-.49.18-1.25.47-1.6.63a3.08,3.08,0,0,0,.33,1.62c1.46,3.49,6.39,8.38,8.33,9.13s6.79-2.48,9.16-4l1.27-.81C38.81,72.13,37.47,66.68,33.41,60.49Z"/><path d="M34.7,59.65a21.48,21.48,0,0,0-8.2-6.94l-1.14-.64A7.38,7.38,0,0,1,22.56,50a2.09,2.09,0,0,1-.43-1.52,1.22,1.22,0,0,1,.62-.77c.23-.14,1.59-.91,1.79-1l.82-.24L25,45.64c-1-2.38-6-14.29-8.86-15.56-2.2-1-5.63,1.3-8.12,3-.48.32-.91.61-1.26.82A13.94,13.94,0,0,0,.32,42.76,15.49,15.49,0,0,0,2.75,54.7c2.29,3.49,7.92,8.19,9.71,9.51a13,13,0,0,1,3.33,3,2.31,2.31,0,0,1,.45,1.74A1.83,1.83,0,0,1,15.32,70l-.64.4-.61.23c-2,.73-2.25.86-2.42,1.26a3.89,3.89,0,0,0,.27,3c1.54,3.69,6.71,9,9.19,10a3.17,3.17,0,0,0,1.15.2c2.44,0,6-2.13,9.4-4.35.51-.33,1-.62,1.31-.83l.13-.1C41.11,72.09,38.4,65.29,34.7,59.65ZM30.88,79.43c-2.38,1.53-7.32,4.73-9.16,4s-6.87-5.64-8.33-9.13a3.08,3.08,0,0,1-.33-1.62c.35-.16,1.12-.45,1.6-.63,1.45-.54,2-.75,2.11-1.19a3.15,3.15,0,0,0,1-1.68,3.79,3.79,0,0,0-.67-2.92,14.13,14.13,0,0,0-3.71-3.35C11.2,61.3,6,56.83,4.06,53.8A14,14,0,0,1,1.84,43a12.42,12.42,0,0,1,5.78-7.89c.37-.22.82-.52,1.32-.86,1.82-1.22,5.22-3.48,6.65-2.85,1.7.76,5.56,8.77,7.79,14.09-.63.34-1.38.78-1.39.79a2.74,2.74,0,0,0-1.32,1.74,3.52,3.52,0,0,0,.64,2.7,8.52,8.52,0,0,0,3.32,2.6l1.15.65a19.87,19.87,0,0,1,7.66,6.44c4.06,6.18,5.39,11.64-1.31,18.12Z"/><path class="cls-1" d="M66.71,49.41a20.91,20.91,0,0,0-1.55-16.12c-3.34-6.38-8-10.71-13.17-12.21a14.94,14.94,0,0,0-4.19-.6,18.7,18.7,0,0,0-9.33,2.74,19.69,19.69,0,0,0-7.59,26.65c5.29,10.09,17.29,14.57,26.75,10A17.56,17.56,0,0,0,66.71,49.41ZM51,46.18a4.57,4.57,0,0,1-2,.46,3.29,3.29,0,0,1-3-1.7,6.87,6.87,0,0,1-.2-4.7,2.86,2.86,0,0,1,1.35-1.78A4.84,4.84,0,0,1,51,38.6a3.73,3.73,0,0,1,2.19,2.25,4.83,4.83,0,0,1-2.12,5.33Z"/><path d="M66.53,32.57C63,25.82,58,21.21,52.43,19.57,47.7,18.2,42.75,19,37.72,21.85a21.2,21.2,0,0,0-8.15,28.7,23.17,23.17,0,0,0,20.18,12.6,19.61,19.61,0,0,0,8.6-2,19.09,19.09,0,0,0,9.82-11.33A22.45,22.45,0,0,0,66.53,32.57ZM30.88,49.87a19.69,19.69,0,0,1,7.56-26.66,18.7,18.7,0,0,1,9.33-2.74,14.94,14.94,0,0,1,4.19.6c5.15,1.5,9.82,5.83,13.17,12.21A20.91,20.91,0,0,1,66.68,49.4a17.56,17.56,0,0,1-9,10.43C48.22,64.43,36.22,60,30.88,49.87Z"/><path d="M51,38.59a4.84,4.84,0,0,0-3.79-.14,2.86,2.86,0,0,0-1.35,1.78,6.87,6.87,0,0,0,.2,4.7,3.29,3.29,0,0,0,3,1.7,4.57,4.57,0,0,0,2-.46,4.83,4.83,0,0,0,2.12-5.34A3.73,3.73,0,0,0,51,38.59Zm-.6,6.21a2.29,2.29,0,0,1-3-.58,5.41,5.41,0,0,1-.1-3.51,1.51,1.51,0,0,1,.56-.88,2.22,2.22,0,0,1,.93-.17,4,4,0,0,1,1.58.33,2.31,2.31,0,0,1,1.34,1.29,3.36,3.36,0,0,1-1.33,3.51Z"/><path class="cls-1" d="M100.88,26.95c-.5-5.4-2.62-19.78-6.47-21.94C92.52,4,87.49,4.41,84,6,82.3,6.74,81.19,7.71,81,8.61c-.77,3.49,3.41,14.78,5.42,20.21,1.07,2.89,1.39,3.74,1.36,4.14a2.37,2.37,0,0,1-.66,2,2.3,2.3,0,0,1-2.19.72c-1.92-.48-2.23-2-2.45-3.12v-.19c-.11-.54-.24-1.24-.39-2-.93-5-3.11-16.71-6.2-18a7.14,7.14,0,0,0-2.78-.51c-3.07,0-6.53,1.49-7.51,3.6-1.91,4.12,2.2,16.13,3.94,20.41,2.84,9.32,12.18,14.87,20.84,12.43C99.31,45.72,102.66,38.95,100.88,26.95Z"/><path d="M102.43,26.77c-.19-2.06-2-20.16-7.24-23.09-2.56-1.43-8.24-.68-11.75.88-2.25,1-3.61,2.29-3.92,3.72-.81,3.63,2.41,12.78,5.48,21.08.38,1,.75,2,1,2.72h0l.32,1a.86.86,0,0,1-.24.8.81.81,0,0,1-.7.29c-.93-.23-1.08-.79-1.31-1.93V32c-.11-.53-.24-1.23-.39-2-1.58-8.47-3.56-17.64-7.1-19.15-4.09-1.75-10.64.31-12.29,3.86-2.58,5.57,3.64,21,3.89,21.57,2.57,8.44,10.16,14,18.12,14a16.87,16.87,0,0,0,4.58-.63C100.48,47,104.29,39.46,102.43,26.77Zm-32.91,9c-1.74-4.28-5.85-16.29-3.94-20.41,1-2.11,4.44-3.6,7.51-3.6a7.14,7.14,0,0,1,2.79.58c3.08,1.32,5.27,13,6.2,18,.15.81.28,1.51.39,2v.19c.22,1.12.53,2.65,2.45,3.12A2.3,2.3,0,0,0,87.11,35a2.37,2.37,0,0,0,.66-2c0-.4-.29-1.25-1.36-4.14-2-5.43-6.2-16.73-5.42-20.21C81.19,7.72,82.3,6.75,84,6c3.44-1.54,8.48-2,10.37-1,3.84,2.15,6,16.54,6.47,21.94,1.76,12-1.59,18.77-10.54,21.3-8.64,2.42-18-3.13-20.82-12.45Z"/><path class="cls-1" d="M128.88,2.21c-6.74-.77-23.32-1.69-26.64,2.48-2.2,2.77-1.15,12.73,1.58,15,.33.2,1.9-.35,2.65-.61,1.47-.51,2.62-.91,3.41-.45a1.26,1.26,0,0,1,.6.89c.94,5.41,2.25,20.67,2.53,24,4.8.52,12.29.61,13.77-1.25,2-2.55,0-10.08-1.45-15.58-1.42-5.31-2.06-7.91-1.1-9,.79-.92,2.34-.73,3.84-.56.78.09,2.25.26,2.49,0C132.09,15.13,130.38,7.12,128.88,2.21Z"/><path d="M130.16,1.27,130,.8l-.49-.06A119.3,119.3,0,0,0,117.17,0h-.29c-8.6,0-14,1.25-15.92,3.72C98.24,7.14,99.38,18,102.75,20.87c.93.78,2.49.24,4.14-.34a10.44,10.44,0,0,1,2-.57c1,6.08,2.52,24.15,2.54,24.33l.05.62.62.08a60.61,60.61,0,0,0,6.77.41c3.64,0,7.63-.43,9-2.16,2.51-3.15.55-10.47-1.17-16.93-.78-2.93-1.85-6.93-1.42-7.62.27-.29,1.66-.13,2.49,0,1.52.18,3.1.37,3.87-.6C134.38,14.71,130.6,2.63,130.16,1.27ZM128,17.15c-1.5-.18-3-.36-3.84.56-1,1.1-.31,3.7,1.1,9,1.47,5.5,3.48,13,1.45,15.58-1.48,1.86-9,1.77-13.77,1.25-.28-3.34-1.59-18.6-2.53-24a1.26,1.26,0,0,0-.6-.89c-.79-.46-1.94-.06-3.41.45-.75.26-2.32.81-2.65.61C101,17.42,100,7.46,102.2,4.71c3.32-4.17,19.9-3.25,26.64-2.48,1.53,4.91,3.25,12.92,1.67,14.9-.24.28-1.7.11-2.49,0Z"/><path class="cls-1" d="M170.4,6.12c-.4-.87-1.75-1.6-3.69-2C163,3.35,158.09,4,156.49,5.4c-1.3,1.17-.84,6.84-.65,9.26.17,2.12.2,2.44-.2,2.78-1,.81-3.54,1.51-4.73.15-.42-.48-.31-1.2.2-3.88s1.4-7.43.38-8.63c-1.29-1.51-5.42-2.64-9.17-2.53-2.35.07-4.08.63-4.75,1.52-5.64,7.52-3.13,35.55-2.73,39.71,4.64,1.28,12.12,2.59,13.9,1,1.16-1,.79-5.49.58-8.16-.24-3-.29-4,.34-4.5a3,3,0,0,1,1.82-.54,3.84,3.84,0,0,1,2.27.7c.65.51.53,1.51.06,4.6-.4,2.63-1.08,7-.06,8.22,1.55,1.82,9.12,1.47,13.89.79C168.46,41.69,173.88,13.64,170.4,6.12Z"/><path d="M171.79,5.47c-.63-1.36-2.28-2.34-4.77-2.86-3.82-.78-9.38-.32-11.56,1.64-1.72,1.55-1.52,6-1.15,10.52,0,.61.1,1.28.11,1.64a2.83,2.83,0,0,1-2.24.25,23.16,23.16,0,0,1,.43-2.68c.84-4.46,1.43-8.29,0-9.91C150.78,1.93,145.89.88,142.22,1c-2.86.09-5,.85-5.93,2.13-6.42,8.57-3.12,40-3,41.31l.06.51.5.14c1.3.37,12.77,3.57,15.85.8,1.6-1.43,1.44-5,1.08-9.42a21.35,21.35,0,0,1-.13-3.23,2.37,2.37,0,0,1,1.95.13,22.41,22.41,0,0,1-.37,3.25c-.67,4.38-1.08,7.85.29,9.45S157,48,160.23,48a58.56,58.56,0,0,0,8.11-.65l.53-.08.11-.52C169.3,45.39,175.75,14,171.79,5.47ZM153.73,45.1c-1-1.19-.34-5.59.06-8.22.47-3.09.59-4.09-.06-4.6a3.84,3.84,0,0,0-2.27-.7,3,3,0,0,0-1.82.54c-.63.49-.58,1.54-.34,4.5.22,2.66.58,7.12-.58,8.16-1.78,1.6-9.25.28-13.9-1-.41-4.16-2.91-32.2,2.73-39.71.67-.89,2.4-1.45,4.75-1.52,3.75-.11,7.88,1,9.17,2.53,1,1.2.11,6-.38,8.63s-.62,3.4-.2,3.88c1.2,1.36,3.78.66,4.73-.15.4-.34.37-.66.2-2.78-.2-2.42-.65-8.09.65-9.26,1.6-1.44,6.48-2,10.22-1.28,1.94.4,3.29,1.13,3.69,2,3.49,7.52-1.93,35.57-2.77,39.77C162.88,46.57,155.28,46.92,153.73,45.1Z"/><path class="cls-1" d="M207.46,13.09c-6.39-2.85-22.34-8.85-26.15-5.25-5.48,5.2-9.17,31.21-8.12,39.41.59,4.61,16,6.58,25.91,6.77,2-4.28,4.51-11.36,3.14-13.48-.7-1.07-3.64-1.51-6.24-1.9-3.2-.48-6.23-.93-7.3-2.58-.56-.87.44-3.89,1.1-4.34,1.66-1.14,4.45,0,7.39,1.15,2.33.93,5,2,6,1.3a4.41,4.41,0,0,0,.74-3.51c-.79-1.21-4.26-1.36-7.06-1.48s-5-.22-6.2-1.09a1.45,1.45,0,0,1-.44-1.25c0-.86.64-4,1.39-4.56,1.69-1.15,4.49.14,7.46,1.51,2.22,1,5,2.3,6,1.64C207.07,24,207.6,17.34,207.46,13.09Z"/><path d="M209,12.55v-.47l-.43-.19c-2.33-1.06-22.93-10.23-28.27-5.16-6.33,6-9.6,32.81-8.58,40.72,1,7.54,25.15,8.08,27.9,8.12h.49l.21-.44c.58-1.2,5.61-11.79,3.25-15.42-1.07-1.66-4.1-2.11-7.3-2.58-2.53-.38-5.38-.8-6.18-1.81a7,7,0,0,1,.67-2.36c1-.6,3.61.43,5.9,1.34,2.94,1.18,5.72,2.29,7.39,1.15,1.31-.89,2-4.3,1.16-5.61-1.22-1.87-4.81-2-8.28-2.18-2-.09-4.26-.18-5.17-.67a12,12,0,0,1,.82-3.47c1-.53,3.71.69,5.86,1.69,3,1.37,5.78,2.66,7.46,1.51C209.41,24.34,209,13.74,209,12.55Zm-4,12.89c-1,.66-3.73-.61-6-1.64-3-1.37-5.77-2.66-7.46-1.51-.75.51-1.37,3.7-1.39,4.56a1.45,1.45,0,0,0,.44,1.25c1.15.87,3.49,1,6.2,1.09s6.27.27,7.06,1.48a4.41,4.41,0,0,1-.74,3.51c-1,.67-3.63-.38-6-1.3-2.94-1.18-5.73-2.29-7.39-1.15-.66.45-1.67,3.47-1.1,4.34,1.07,1.65,4.1,2.11,7.3,2.58,2.6.39,5.54.83,6.24,1.9C203.51,42.67,201,49.75,199,54c-9.91-.19-25.31-2.16-25.91-6.77-1-8.2,2.64-34.22,8.12-39.41C185,4.24,201,10.24,207.36,13.1c.24,4.24-.29,10.93-2.36,12.34Z"/><path class="cls-1" d="M234.61,22.34l-17.8-5.09c-6.06,6.34-10.63,26.71-11.93,39.14,5.74,2,12.3,3.84,13.3,3.27a7.57,7.57,0,0,0,.47-2.06c.25-1.66.49-3.22,1.75-3.28h.07a1.26,1.26,0,0,1,.87.34c.67.62.7,1.92.74,3.43a7.13,7.13,0,0,0,.35,2.67c3.35,2.26,14.2,5.37,17.06,6.17.22-2.33-2.27-10.45-5-17.41l-.27-.69.68-.29a14.42,14.42,0,0,0,8.31-8.73,14.69,14.69,0,0,0-1-11.28A12.55,12.55,0,0,0,234.61,22.34Zm-4.66,13.27A3.16,3.16,0,0,1,227,37.76h-.25c-2.62-.42-3-1-3.09-1.14a3.76,3.76,0,0,1-.12-2.66,4.2,4.2,0,0,1,1.43-2.5c.24-.14.81-.45,3.33.9a2.44,2.44,0,0,1,1.39,1.17,2.73,2.73,0,0,1,.23,2.09Z"/><path d="M243.57,27.8A14.07,14.07,0,0,0,235,20.87l-18.66-5.34-.32.31c-6.66,6.4-11.48,27.83-12.76,41l-.06.59.56.2c3.94,1.43,13.3,4.63,15.25,3.3.74-.5.92-1.7,1.13-3.1.06-.43.16-1,.27-1.49a17.9,17.9,0,0,1,.1,1.79c0,1.68.09,3.27,1,3.89,4.07,2.74,17.65,6.42,18.23,6.58l.53.14.31-.46c1.59-2.38-2.69-14.12-4.44-18.66a15.8,15.8,0,0,0,8.5-9.37A16.24,16.24,0,0,0,243.57,27.8Zm-.35,12a14.42,14.42,0,0,1-8.31,8.73l-.68.29.27.69c2.73,7,5.22,15.08,5,17.41-2.86-.8-13.71-3.91-17.06-6.17a7.13,7.13,0,0,1-.35-2.67c0-1.51-.07-2.81-.74-3.43a1.26,1.26,0,0,0-.87-.34h-.07c-1.26.06-1.5,1.63-1.75,3.28a7.57,7.57,0,0,1-.47,2.06c-1,.57-7.56-1.22-13.3-3.27,1.3-12.43,5.87-32.8,11.93-39.14l17.8,5.09a12.55,12.55,0,0,1,7.6,6.18A14.69,14.69,0,0,1,243.22,39.8Z"/><path d="M228.36,32.34c-2.52-1.35-3.09-1-3.33-.9a4.2,4.2,0,0,0-1.43,2.5,3.76,3.76,0,0,0,.12,2.66c.12.18.48.71,3.09,1.14h.2a3.16,3.16,0,0,0,2.92-2.15,2.73,2.73,0,0,0-.2-2.09A2.44,2.44,0,0,0,228.36,32.34Zm-2.67.52a10.52,10.52,0,0,1,2,.87l.15.06a.9.9,0,0,1,.55.45,1.18,1.18,0,0,1,.08.91c-.07.22-.27.89-1.52,1.06a9.43,9.43,0,0,1-2-.51,4.89,4.89,0,0,1,.74-2.82Z"/></g></g></svg>